<svg xmlns="http://www.w3.org/2000/svg" viewBox="0 0 280 192" width="280" height="192" role="img" aria-label="Top languages by commit">
  <style>text { font-family: -apple-system, BlinkMacSystemFont, "Segoe UI", Roboto, "Helvetica Neue", sans-serif; }</style>
  <rect x="0" y="0" width="280" height="192" rx="8" ry="8" fill="#0d1117"/>
  <rect x="0.5" y="0.5" width="279" height="191" rx="8" ry="8" fill="none" stroke="#30363d"/>
  <text x="16" y="24" fill="#7d8590" font-size="10" letter-spacing="0.1em">LANGUAGES BY COMMIT</text><text x="16" y="48" fill="#e6edf3" font-size="11">TypeScript</text><text x="264" y="48" fill="#7d8590" font-size="10" text-anchor="end">25 · 41%</text><rect x="16" y="52" width="248" height="6" rx="3" ry="3" fill="#161b22"/><rect x="16" y="52" width="101.63934426229508" height="6" rx="3" ry="3" fill="#3178c6"/><text x="16" y="76" fill="#e6edf3" font-size="11">C#</text><text x="264" y="76" fill="#7d8590" font-size="10" text-anchor="end">20 · 33%</text><rect x="16" y="80" width="248" height="6" rx="3" ry="3" fill="#161b22"/><rect x="16" y="80" width="81.31147540983606" height="6" rx="3" ry="3" fill="#178600"/><text x="16" y="104" fill="#e6edf3" font-size="11">Lua</text><text x="264" y="104" fill="#7d8590" font-size="10" text-anchor="end">10 · 16%</text><rect x="16" y="108" width="248" height="6" rx="3" ry="3" fill="#161b22"/><rect x="16" y="108" width="40.65573770491803" height="6" rx="3" ry="3" fill="#000080"/><text x="16" y="132" fill="#e6edf3" font-size="11">HTML</text><text x="264" y="132" fill="#7d8590" font-size="10" text-anchor="end">5 · 8%</text><rect x="16" y="136" width="248" height="6" rx="3" ry="3" fill="#161b22"/><rect x="16" y="136" width="20.327868852459016" height="6" rx="3" ry="3" fill="#e34c26"/><text x="16" y="160" fill="#e6edf3" font-size="11">Go</text><text x="264" y="160" fill="#7d8590" font-size="10" text-anchor="end">1 · 2%</text><rect x="16" y="164" width="248" height="6" rx="3" ry="3" fill="#161b22"/><rect x="16" y="164" width="4.065573770491803" height="6" rx="3" ry="3" fill="#00ADD8"/>
</svg>