<svg xmlns="http://www.w3.org/2000/svg" viewBox="0 0 280 192" width="280" height="192" role="img" aria-label="Top languages by commit">
  <style>
  text { font-family: -apple-system, BlinkMacSystemFont, "Segoe UI", Roboto, "Helvetica Neue", sans-serif; }
  .bg { fill: #ffffff; }
  .panel { fill: #f6f8fa; }
  .border { stroke: #d0d7de; }
  .fg { fill: #1f2328; }
  .muted { fill: #656d76; }
  .accent { fill: #0969da; }
  .accent2 { fill: #1f883d; }
  .accent-stroke { stroke: #0969da; }
  @media (prefers-color-scheme: dark) {
    .bg { fill: #0d1117; }
    .panel { fill: #161b22; }
    .border { stroke: #30363d; }
    .fg { fill: #e6edf3; }
    .muted { fill: #7d8590; }
    .accent { fill: #58a6ff; }
    .accent2 { fill: #3fb950; }
    .accent-stroke { stroke: #58a6ff; }
  }
</style>
  <rect class="bg" x="0" y="0" width="280" height="192" rx="8" ry="8"/>
  <rect class="border" x="0.5" y="0.5" width="279" height="191" rx="8" ry="8" fill="none"/>
  <text class="muted" x="16" y="24" font-size="10" letter-spacing="0.1em">LANGUAGES BY COMMIT</text><text class="fg" x="16" y="48" font-size="11">TypeScript</text><text class="muted" x="264" y="48" font-size="10" text-anchor="end">27 · 43%</text><rect class="panel" x="16" y="52" width="248" height="6" rx="3" ry="3"/><rect x="16" y="52" width="106.28571428571428" height="6" rx="3" ry="3" fill="#3178c6"/><text class="fg" x="16" y="76" font-size="11">C#</text><text class="muted" x="264" y="76" font-size="10" text-anchor="end">20 · 32%</text><rect class="panel" x="16" y="80" width="248" height="6" rx="3" ry="3"/><rect x="16" y="80" width="78.73015873015872" height="6" rx="3" ry="3" fill="#178600"/><text class="fg" x="16" y="104" font-size="11">Lua</text><text class="muted" x="264" y="104" font-size="10" text-anchor="end">10 · 16%</text><rect class="panel" x="16" y="108" width="248" height="6" rx="3" ry="3"/><rect x="16" y="108" width="39.36507936507936" height="6" rx="3" ry="3" fill="#000080"/><text class="fg" x="16" y="132" font-size="11">HTML</text><text class="muted" x="264" y="132" font-size="10" text-anchor="end">5 · 8%</text><rect class="panel" x="16" y="136" width="248" height="6" rx="3" ry="3"/><rect x="16" y="136" width="19.68253968253968" height="6" rx="3" ry="3" fill="#e34c26"/><text class="fg" x="16" y="160" font-size="11">Go</text><text class="muted" x="264" y="160" font-size="10" text-anchor="end">1 · 2%</text><rect class="panel" x="16" y="164" width="248" height="6" rx="3" ry="3"/><rect x="16" y="164" width="3.9365079365079363" height="6" rx="3" ry="3" fill="#00ADD8"/>
</svg>