<svg xmlns="http://www.w3.org/2000/svg" viewBox="0 0 280 180" width="280" height="180" role="img" aria-label="Monthly contributions">
  <style>
  text { font-family: -apple-system, BlinkMacSystemFont, "Segoe UI", Roboto, "Helvetica Neue", sans-serif; }
  .bg { fill: #ffffff; }
  .panel { fill: #f6f8fa; }
  .border { stroke: #d0d7de; }
  .fg { fill: #1f2328; }
  .muted { fill: #656d76; }
  .accent { fill: #0969da; }
  .accent2 { fill: #1f883d; }
  .accent-stroke { stroke: #0969da; }
  @media (prefers-color-scheme: dark) {
    .bg { fill: #0d1117; }
    .panel { fill: #161b22; }
    .border { stroke: #30363d; }
    .fg { fill: #e6edf3; }
    .muted { fill: #7d8590; }
    .accent { fill: #58a6ff; }
    .accent2 { fill: #3fb950; }
    .accent-stroke { stroke: #58a6ff; }
  }
</style>
  <rect class="bg" x="0" y="0" width="280" height="180" rx="8" ry="8"/>
  <rect class="border" x="0.5" y="0.5" width="279" height="179" rx="8" ry="8" fill="none"/>
  <text class="muted" x="16" y="24" font-size="10" letter-spacing="0.1em">MONTHLY CONTRIBUTIONS</text><text class="muted" x="264" y="24" font-size="9" text-anchor="end">last 12 months</text><rect class="accent2" x="16" y="135.93399339933993" width="17" height="8.066006600660065" rx="2" ry="2" opacity="0.59"/><text class="muted" x="24.5" y="156" font-size="8" text-anchor="middle">J</text><rect class="accent2" x="37" y="138.3124312431243" width="17" height="5.687568756875688" rx="2" ry="2" opacity="0.58"/><text class="muted" x="45.5" y="156" font-size="8" text-anchor="middle">J</text><rect class="accent2" x="58" y="135.83058305830582" width="17" height="8.16941694169417" rx="2" ry="2" opacity="0.59"/><text class="muted" x="66.5" y="156" font-size="8" text-anchor="middle">A</text><rect class="accent2" x="79" y="139.44994499449945" width="17" height="4.55005500550055" rx="2" ry="2" opacity="0.57"/><text class="muted" x="87.5" y="156" font-size="8" text-anchor="middle">S</text><rect class="accent2" x="100" y="137.17491749174917" width="17" height="6.8250825082508255" rx="2" ry="2" opacity="0.58"/><text class="muted" x="108.5" y="156" font-size="8" text-anchor="middle">O</text><rect class="accent2" x="121" y="135.7271727172717" width="17" height="8.272827282728274" rx="2" ry="2" opacity="0.59"/><text class="muted" x="129.5" y="156" font-size="8" text-anchor="middle">N</text><rect class="accent2" x="142" y="126.83388338833883" width="17" height="17.166116611661167" rx="2" ry="2" opacity="0.63"/><text class="muted" x="150.5" y="156" font-size="8" text-anchor="middle">D</text><rect class="accent2" x="163" y="128.5918591859186" width="17" height="15.408140814081408" rx="2" ry="2" opacity="0.62"/><text class="muted" x="171.5" y="156" font-size="8" text-anchor="middle">J</text><rect class="accent2" x="184" y="87.43454345434543" width="17" height="56.56545654565457" rx="2" ry="2" opacity="0.82"/><text class="muted" x="192.5" y="156" font-size="8" text-anchor="middle">F</text><rect class="accent2" x="205" y="50" width="17" height="94" rx="2" ry="2" opacity="1.00"/><text class="muted" x="213.5" y="156" font-size="8" text-anchor="middle">M</text><rect class="accent2" x="226" y="126.62706270627064" width="17" height="17.372937293729372" rx="2" ry="2" opacity="0.63"/><text class="muted" x="234.5" y="156" font-size="8" text-anchor="middle">A</text><rect class="accent2" x="247" y="140.48404840484048" width="17" height="3.5159515951595157" rx="2" ry="2" opacity="0.57"/><text class="muted" x="255.5" y="156" font-size="8" text-anchor="middle">M</text><text class="muted" x="16" y="164" font-size="10">total</text><text class="fg" x="264" y="164" font-size="11" text-anchor="end" font-weight="600">2,375</text>
</svg>